<svg width="1000" height="285" viewBox="0 0 1000 285" fill="none" xmlns="http://www.w3.org/2000/svg">
<path d="M218.9 165C217.3 153.1 208 146.9 195.2 146.9C175.4 146.9 167.8 164.4 167.8 181.8C167.8 199.2 175.4 216.8 195.2 216.8C209.5 216.8 217.8 208.5 218.9 195H249.6C248 225.4 225.7 243.2 195.8 243.2C160.2 243.2 137.1 216 137.1 181.8C137.1 147.6 160.2 120.5 195.8 120.5C221.2 120.5 248.7 136.7 249.6 165H218.9Z" fill="white"/>
<path d="M304 196.9H330.7L317.7 155.7H317.4L304 196.9ZM302 123H333.2L377.2 240.8H345.2L337.9 219.7H296.9L289.5 240.8H258L302 123Z" fill="white"/>
<path d="M390.2 123H420.9V214.3H475.8V240.7H390.2V123Z" fill="white"/>
<path d="M525.8 123H495.1V240.7H525.8V123Z" fill="white"/>
<path d="M585.1 196.9H611.8L598.8 155.7H598.5L585.1 196.9ZM583.1 123H614.3L658.3 240.8H626.3L619 219.7H578L570.6 240.8H539.1L583.1 123Z" fill="white"/>
<path d="M671 123H702.5L743.4 195.5H743.8V123H772.6V240.7H741.1L700.2 167.3H699.9V240.7H671V123Z" fill="white"/>
<path d="M506 39.6C347.1 39.6 198 54.6 69.5 80.8L36.3 94.8C145 77.7 265.3 68.2 391.9 68.2C427.4 68.2 462.5 68.9 496.9 70.4L511 52.2L525.3 71.8C645.3 78.3 757.3 93.4 856.1 115.3L963.6 85.3C830.5 56.3 673.8 39.6 506 39.6Z" fill="white"/>
</svg>
