<?xml version="1.0" encoding="utf-8"?>
<!-- Generator: Adobe Illustrator 26.0.2, SVG Export Plug-In . SVG Version: 6.00 Build 0)  -->
<svg version="1.1" id="Layer_1" xmlns="http://www.w3.org/2000/svg" xmlns:xlink="http://www.w3.org/1999/xlink" x="0px" y="0px"
	 viewBox="0 0 1000 285" style="enable-background:new 0 0 1000 285;" xml:space="preserve">
<style type="text/css">
	.st0{fill:#0F74B9;}
</style>
<path d="M218.9,165c-1.6-11.9-10.9-18.1-23.7-18.1c-19.8,0-27.4,17.5-27.4,34.9s7.6,35,27.4,35c14.3,0,22.6-8.3,23.7-21.8h30.7
	c-1.6,30.4-23.9,48.2-53.8,48.2c-35.6,0-58.7-27.2-58.7-61.4s23.1-61.3,58.7-61.3c25.4,0,52.9,16.2,53.8,44.5L218.9,165z"/>
<path d="M304,196.9h26.7l-13-41.2h-0.3L304,196.9z M302,123h31.2l44,117.8h-32l-7.3-21.1h-41l-7.4,21.1H258L302,123z"/>
<polygon points="390.2,123 420.9,123 420.9,214.3 475.8,214.3 475.8,240.7 390.2,240.7 "/>
<rect x="495.1" y="123" width="30.7" height="117.7"/>
<path d="M585.1,196.9h26.7l-13-41.2h-0.3L585.1,196.9z M583.1,123h31.2l44,117.8h-32l-7.3-21.1h-41l-7.4,21.1h-31.5L583.1,123z"/>
<polygon points="671,123 702.5,123 743.4,195.5 743.8,195.5 743.8,123 772.6,123 772.6,240.7 741.1,240.7 700.2,167.3 699.9,167.3 
	699.9,240.7 671,240.7 "/>
<path class="st0" d="M506,39.6c-158.9,0-308,15-436.5,41.2l-33.2,14c108.7-17.1,229-26.6,355.6-26.6c35.5,0,70.6,0.7,105,2.2
	l14.1-18.2l14.3,19.6c120,6.5,232,21.6,330.8,43.5l107.5-30C830.5,56.3,673.8,39.6,506,39.6"/>
</svg>
