<svg id="Layer_1" data-name="Layer 1" xmlns="http://www.w3.org/2000/svg" viewBox="0 0 1000 500"><defs><style>.cls-1{fill:#0f74b9;}</style></defs><path d="M218.87,208c-1.64-11.86-10.88-18.12-23.74-18.12-19.79,0-27.38,17.47-27.38,34.94s7.59,35,27.38,35c14.34,0,22.59-8.26,23.74-21.79h30.68c-1.65,30.35-23.91,48.16-53.76,48.16-35.62,0-58.71-27.21-58.71-61.35s23.09-61.34,58.71-61.34c25.39,0,52.93,16.17,53.76,44.52Z"/><path d="M304,239.86h26.72l-13-41.23h-.33ZM302,166h31.17l44,117.75h-32l-7.26-21.11H296.87l-7.42,21.11H258Z"/><polygon points="390.21 165.98 420.88 165.98 420.88 257.33 475.79 257.33 475.79 283.73 390.21 283.73 390.21 165.98"/><rect x="495.09" y="165.98" width="30.67" height="117.75"/><path d="M585.12,239.86h26.72l-13-41.23h-.33Zm-2-73.88h31.16l44,117.75h-32l-7.26-21.11H578l-7.42,21.11h-31.5Z"/><polygon points="671.04 165.98 702.53 165.98 743.44 238.53 743.75 238.53 743.75 165.98 772.61 165.98 772.61 283.73 741.12 283.73 700.23 210.34 699.9 210.34 699.9 283.73 671.04 283.73 671.04 165.98"/><path class="cls-1" d="M506,82.6c-158.94,0-308,15-436.55,41.18l-33.17,14c108.69-17.11,229-26.63,355.64-26.63q53.32,0,105.05,2.22l14.11-18.22,14.34,19.58c120,6.49,232,21.63,330.81,43.52l107.47-30C830.5,99.29,673.76,82.6,506,82.6"/><path d="M845.24,269.62a2.35,2.35,0,0,0,1.48-.42,1.79,1.79,0,0,0,.53-1.49,1.74,1.74,0,0,0-.52-1.44,2.35,2.35,0,0,0-1.5-.42H842v3.77Zm1-6.06a3.92,3.92,0,0,1,2.8,1.05,3.43,3.43,0,0,1,1.12,2.65,3.27,3.27,0,0,1-2.12,3.35v0a2.2,2.2,0,0,1,1.11.69,3.35,3.35,0,0,1,.62,1.11,9,9,0,0,1,.26,2.05,5,5,0,0,0,.52,2.46h-2.94a9.11,9.11,0,0,1-.38-2.33,4.23,4.23,0,0,0-.66-2.35,2.11,2.11,0,0,0-1.64-.56h-3V277h-2.94v-13.4Z"/><path d="M844.32,257.87a12.78,12.78,0,1,0,12.77,12.78,12.78,12.78,0,0,0-12.77-12.78m0,2.42A10.36,10.36,0,1,1,834,270.65a10.37,10.37,0,0,1,10.36-10.36"/><path d="M111.72,389.06q-.69,7.33-5.41,11.45t-12.57,4.11a17.89,17.89,0,0,1-9.65-2.6,17,17,0,0,1-6.44-7.39,26.59,26.59,0,0,1-2.36-11.11v-4.29a26.9,26.9,0,0,1,2.29-11.43,17.47,17.47,0,0,1,6.6-7.62,18.47,18.47,0,0,1,9.94-2.68q7.59,0,12.22,4.11t5.38,11.64h-7.93c-.38-3.3-1.34-5.67-2.88-7.13s-3.81-2.19-6.79-2.19a9.29,9.29,0,0,0-8,3.8q-2.77,3.79-2.84,11.14v4.07q0,7.44,2.66,11.34a8.81,8.81,0,0,0,7.79,3.91q4.7,0,7.05-2.11c1.58-1.4,2.58-3.75,3-7Z"/><path d="M121.18,386.63a20,20,0,0,1,2-9,14.53,14.53,0,0,1,5.57-6.17,15.72,15.72,0,0,1,8.25-2.16,14.9,14.9,0,0,1,11.2,4.44q4.29,4.44,4.64,11.78l0,1.8a20.24,20.24,0,0,1-1.94,9,14.25,14.25,0,0,1-5.54,6.14,15.83,15.83,0,0,1-8.33,2.18,14.78,14.78,0,0,1-11.55-4.81q-4.32-4.8-4.33-12.8Zm7.66.67c0,3.5.72,6.25,2.17,8.23a7.57,7.57,0,0,0,12.08,0c1.44-2,2.15-5,2.15-8.85a13.52,13.52,0,0,0-2.22-8.18,7.47,7.47,0,0,0-12-.05Q128.83,381.37,128.84,387.3Z"/><path d="M171,369.91l.22,3.94a12.25,12.25,0,0,1,9.93-4.57q10.64,0,10.83,12.19V404h-7.65V381.91a7,7,0,0,0-1.4-4.8q-1.41-1.56-4.59-1.56a7.37,7.37,0,0,0-6.89,4.19V404h-7.66V369.91Z"/><path d="M206.93,404V375.58h-5.2v-5.67h5.2v-3.12c0-3.78,1-6.69,3.15-8.75s5-3.09,8.82-3.09a17.58,17.58,0,0,1,4.28.57l-.19,6a15.69,15.69,0,0,0-2.93-.25q-5.48,0-5.48,5.64v3h6.93v5.67h-6.93V404Z"/><path d="M231.63,361.06a4.1,4.1,0,0,1,1.12-2.93A4.26,4.26,0,0,1,236,357a4.31,4.31,0,0,1,3.21,1.16,4,4,0,0,1,1.13,2.93,3.9,3.9,0,0,1-1.13,2.88,4.31,4.31,0,0,1-3.21,1.15,4.25,4.25,0,0,1-3.2-1.15A4,4,0,0,1,231.63,361.06ZM239.76,404h-7.65V369.91h7.65Z"/><path d="M251.17,386.7q0-7.87,3.65-12.65a11.71,11.71,0,0,1,9.8-4.77,11.1,11.1,0,0,1,8.75,3.78V355.61H281V404H274.1l-.38-3.53a11.28,11.28,0,0,1-9.16,4.16,11.66,11.66,0,0,1-9.69-4.82Q251.17,395,251.17,386.7Zm7.65.66c0,3.46.67,6.17,2,8.11a6.5,6.5,0,0,0,5.69,2.91,7.21,7.21,0,0,0,6.86-4.19V379.64a7.1,7.1,0,0,0-6.8-4.09,6.53,6.53,0,0,0-5.73,2.94C259.5,380.46,258.82,383.41,258.82,387.36Z"/><path d="M308.53,404.62A15.84,15.84,0,0,1,296.74,400q-4.53-4.59-4.52-12.21v-.94a20.37,20.37,0,0,1,2-9.12,14.94,14.94,0,0,1,5.52-6.25,14.65,14.65,0,0,1,7.94-2.24q7,0,10.76,4.44t3.79,12.57v3.08H299.93a10.27,10.27,0,0,0,2.82,6.68,8.46,8.46,0,0,0,6.22,2.46,10.38,10.38,0,0,0,8.57-4.25l4.13,3.93a13.77,13.77,0,0,1-5.47,4.74A17,17,0,0,1,308.53,404.62Zm-.91-29.2a6.45,6.45,0,0,0-5.09,2.21,11.44,11.44,0,0,0-2.47,6.14h14.58v-.57a9.29,9.29,0,0,0-2.05-5.81A6.38,6.38,0,0,0,307.62,375.42Z"/><path d="M339.75,369.91l.22,3.94a12.24,12.24,0,0,1,9.92-4.57q10.65,0,10.84,12.19V404h-7.65V381.91a7,7,0,0,0-1.41-4.8q-1.4-1.56-4.58-1.56a7.39,7.39,0,0,0-6.9,4.19V404h-7.65V369.91Z"/><path d="M385.75,398.51a6.92,6.92,0,0,0,4.75-1.67,5.73,5.73,0,0,0,2-4.13h7.21a11.39,11.39,0,0,1-2,5.94,13,13,0,0,1-5,4.36,15.07,15.07,0,0,1-6.87,1.61q-7.15,0-11.34-4.63t-4.19-12.79v-.79q0-7.77,4.16-12.45t11.34-4.68a14,14,0,0,1,9.9,3.54,12.74,12.74,0,0,1,4,9.31h-7.21a7,7,0,0,0-2-4.82,6.43,6.43,0,0,0-4.77-1.89,6.75,6.75,0,0,0-5.74,2.7c-1.34,1.79-2,4.52-2,8.17v1.23c0,3.69.66,6.45,2,8.26A6.72,6.72,0,0,0,385.75,398.51Z"/><path d="M425,404.62A15.84,15.84,0,0,1,413.24,400q-4.53-4.59-4.52-12.21v-.94a20.5,20.5,0,0,1,2-9.12,15,15,0,0,1,5.53-6.25,14.62,14.62,0,0,1,7.94-2.24q7,0,10.75,4.44t3.8,12.57v3.08H416.43a10.22,10.22,0,0,0,2.82,6.68,8.46,8.46,0,0,0,6.22,2.46,10.38,10.38,0,0,0,8.57-4.25l4.12,3.93a13.67,13.67,0,0,1-5.46,4.74A17,17,0,0,1,425,404.62Zm-.91-29.2a6.45,6.45,0,0,0-5.09,2.21,11.44,11.44,0,0,0-2.47,6.14h14.58v-.57a9.29,9.29,0,0,0-2.05-5.81A6.38,6.38,0,0,0,424.12,375.42Z"/><path d="M452.63,395.93a4.37,4.37,0,0,1,3.31,1.21,4.24,4.24,0,0,1,1.16,3,4.07,4.07,0,0,1-1.16,3,5.17,5.17,0,0,1-6.55,0,4,4,0,0,1-1.2-3,4.2,4.2,0,0,1,1.17-3A4.29,4.29,0,0,1,452.63,395.93Z"/><path d="M518.51,383.52H499.67v14.11h22V404h-30V358.13h29.76v6.43h-21.8v12.66h18.84Z"/><path d="M539.05,369.91l.22,3.94a12.24,12.24,0,0,1,9.92-4.57q10.65,0,10.84,12.19V404h-7.66V381.91a7,7,0,0,0-1.4-4.8q-1.4-1.56-4.58-1.56a7.38,7.38,0,0,0-6.9,4.19V404h-7.65V369.91Z"/><path d="M569.71,386.7q0-7.93,3.73-12.68a12,12,0,0,1,9.9-4.74,11.25,11.25,0,0,1,9.17,4.06l.35-3.43h6.89v33q0,6.71-4.17,10.58t-11.26,3.87a18.27,18.27,0,0,1-7.32-1.55,13,13,0,0,1-5.43-4.08l3.62-4.6a11,11,0,0,0,8.69,4.19,8.42,8.42,0,0,0,6-2.07,7.89,7.89,0,0,0,2.21-6.06v-2.3a11.26,11.26,0,0,1-8.82,3.69,12,12,0,0,1-9.78-4.76Q569.71,395.11,569.71,386.7Zm7.62.66q0,5.13,2.09,8.08a6.75,6.75,0,0,0,5.81,2.94,7.36,7.36,0,0,0,6.87-4v-15a7.26,7.26,0,0,0-6.8-3.87,6.78,6.78,0,0,0-5.88,3Q577.34,381.54,577.33,387.36Z"/><path d="M612.14,361.06a4.06,4.06,0,0,1,1.12-2.93,4.24,4.24,0,0,1,3.2-1.16,4.31,4.31,0,0,1,3.21,1.16,4.07,4.07,0,0,1,1.13,2.93,3.94,3.94,0,0,1-1.13,2.88,4.31,4.31,0,0,1-3.21,1.15,4.24,4.24,0,0,1-3.2-1.15A3.93,3.93,0,0,1,612.14,361.06ZM620.27,404h-7.66V369.91h7.66Z"/><path d="M640.21,369.91l.22,3.94a12.24,12.24,0,0,1,9.92-4.57q10.65,0,10.84,12.19V404h-7.66V381.91a7,7,0,0,0-1.4-4.8q-1.39-1.56-4.58-1.56a7.39,7.39,0,0,0-6.9,4.19V404H633V369.91Z"/><path d="M688.5,404.62A15.84,15.84,0,0,1,676.71,400q-4.51-4.59-4.52-12.21v-.94a20.5,20.5,0,0,1,2-9.12,14.9,14.9,0,0,1,5.53-6.25,14.59,14.59,0,0,1,7.93-2.24q7,0,10.76,4.44t3.79,12.57v3.08H679.91a10.26,10.26,0,0,0,2.81,6.68,8.47,8.47,0,0,0,6.22,2.46,10.37,10.37,0,0,0,8.57-4.25l4.13,3.93a13.77,13.77,0,0,1-5.47,4.74A17,17,0,0,1,688.5,404.62Zm-.91-29.2a6.47,6.47,0,0,0-5.09,2.21,11.44,11.44,0,0,0-2.47,6.14h14.58v-.57a9.29,9.29,0,0,0-2-5.81A6.42,6.42,0,0,0,687.59,375.42Z"/><path d="M727.63,404.62a15.87,15.87,0,0,1-11.8-4.58q-4.51-4.59-4.51-12.21v-.94a20.5,20.5,0,0,1,2-9.12,15,15,0,0,1,5.53-6.25,14.62,14.62,0,0,1,7.94-2.24q7,0,10.75,4.44t3.8,12.57v3.08H719a10.22,10.22,0,0,0,2.82,6.68,8.46,8.46,0,0,0,6.22,2.46,10.38,10.38,0,0,0,8.57-4.25l4.12,3.93a13.67,13.67,0,0,1-5.46,4.74A17,17,0,0,1,727.63,404.62Zm-.91-29.2a6.45,6.45,0,0,0-5.09,2.21,11.36,11.36,0,0,0-2.47,6.14h14.58v-.57a9.29,9.29,0,0,0-2-5.81A6.38,6.38,0,0,0,726.72,375.42Z"/><path d="M769.59,376.9a19.91,19.91,0,0,0-3.12-.25c-3.5,0-5.87,1.35-7.08,4V404h-7.66V369.91H759l.19,3.81a8.62,8.62,0,0,1,7.68-4.44,7.25,7.25,0,0,1,2.71.44Z"/><path d="M793.35,404.62a15.87,15.87,0,0,1-11.8-4.58Q777,395.45,777,387.83v-.94a20.5,20.5,0,0,1,2-9.12,15,15,0,0,1,5.53-6.25,14.62,14.62,0,0,1,7.94-2.24q7,0,10.75,4.44t3.8,12.57v3.08H784.75a10.22,10.22,0,0,0,2.82,6.68,8.46,8.46,0,0,0,6.22,2.46,10.36,10.36,0,0,0,8.56-4.25l4.13,3.93a13.74,13.74,0,0,1-5.46,4.74A17,17,0,0,1,793.35,404.62Zm-.92-29.2a6.43,6.43,0,0,0-5.08,2.21,11.36,11.36,0,0,0-2.47,6.14h14.58v-.57a9.29,9.29,0,0,0-2.05-5.81A6.42,6.42,0,0,0,792.43,375.42Z"/><path d="M816,386.7q0-7.87,3.65-12.65a11.7,11.7,0,0,1,9.79-4.77,11.14,11.14,0,0,1,8.76,3.78V355.61h7.65V404H839l-.38-3.53a11.27,11.27,0,0,1-9.16,4.16,11.63,11.63,0,0,1-9.68-4.82Q816,395,816,386.7Zm7.65.66c0,3.46.66,6.17,2,8.11a6.49,6.49,0,0,0,5.68,2.91,7.22,7.22,0,0,0,6.87-4.19V379.64a7.12,7.12,0,0,0-6.8-4.09,6.56,6.56,0,0,0-5.74,2.94C824.36,380.46,823.69,383.41,823.69,387.36Z"/><path d="M861.87,395.93a4.37,4.37,0,0,1,3.31,1.21,4.24,4.24,0,0,1,1.16,3,4.07,4.07,0,0,1-1.16,3,5.17,5.17,0,0,1-6.55,0,4,4,0,0,1-1.2-3,4.24,4.24,0,0,1,1.16-3A4.33,4.33,0,0,1,861.87,395.93Z"/></svg>