<?xml version="1.0" encoding="UTF-8" standalone="no"?>
<svg
   height="28"
   viewBox="0 0 259 16"
   fill="none"
   version="1.1"
   id="svg27714"
   sodipodi:docname="brand_isecurity.svg"
   width="259"
   inkscape:version="1.1.2 (0a00cf5339, 2022-02-04)"
   xmlns:inkscape="http://www.inkscape.org/namespaces/inkscape"
   xmlns:sodipodi="http://sodipodi.sourceforge.net/DTD/sodipodi-0.dtd"
   xmlns="http://www.w3.org/2000/svg"
   xmlns:svg="http://www.w3.org/2000/svg">
  <defs
     id="defs27718" />
  <sodipodi:namedview
     id="namedview27716"
     pagecolor="#ffffff"
     bordercolor="#666666"
     borderopacity="1.0"
     inkscape:pageshadow="2"
     inkscape:pageopacity="0.0"
     inkscape:pagecheckerboard="0"
     showgrid="false"
     inkscape:zoom="2"
     inkscape:cx="119.5"
     inkscape:cy="-74"
     inkscape:window-width="1920"
     inkscape:window-height="1004"
     inkscape:window-x="0"
     inkscape:window-y="40"
     inkscape:window-maximized="1"
     inkscape:current-layer="switch27688"
     inkscape:snap-bbox="true"
     fit-margin-top="0"
     fit-margin-left="0"
     fit-margin-right="0"
     fit-margin-bottom="0"
     width="300px" />
  <style
     type="text/css"
     id="style27610">.st0{fill:#0474B7;}.st1{fill:#187BBB;}.st2{fill:#221E1F;}</style>
  <switch
     id="switch27688"
     transform="matrix(1.0434455,0,0,1.0434455,-71.140854,-9.3839831)">
    <g
       transform="matrix(0.25910427,0,0,0.25910427,38.27816,-20.011372)"
       id="g27660">
      <path
         class="st0"
         d="m 587.77,128.52 9.63,27.18 h -4.69 l -2.35,-7.19 h -9.98 l -2.35,7.19 h -4.52 l 9.59,-27.18 z m -2.41,4.69 -3.78,11.68 h 7.63 l -3.75,-11.68 z"
         id="path27612" />
      <path
         class="st0"
         d="m 620.16,127.88 c 2.96,0 5.41,0.85 7.34,2.55 1.93,1.7 3.02,3.95 3.27,6.74 h -4.38 c -0.86,-3.6 -2.94,-5.4 -6.23,-5.4 -2.36,0 -4.21,0.95 -5.57,2.85 -1.35,1.9 -2.03,4.4 -2.03,7.5 0,3.17 0.7,5.69 2.1,7.56 1.4,1.87 3.23,2.8 5.5,2.8 1.8,0 3.25,-0.63 4.36,-1.9 1.11,-1.27 1.78,-3.01 2.01,-5.21 h 4.27 c -0.23,3.27 -1.3,5.93 -3.19,7.96 -1.89,2.03 -4.38,3.05 -7.46,3.05 -3.48,0 -6.34,-1.33 -8.6,-3.98 -2.25,-2.65 -3.38,-6.07 -3.38,-10.26 0,-4.16 1.11,-7.57 3.33,-10.24 2.23,-2.69 5.11,-4.02 8.66,-4.02 z"
         id="path27614" />
      <path
         class="st0"
         d="m 642.15,135.49 c 2.24,0.03 4,0.54 5.29,1.54 1.28,1 1.94,2.35 1.96,4.05 v 10.35 c 0,0.51 0.07,0.86 0.21,1.07 0.14,0.2 0.43,0.3 0.88,0.3 0.37,0 0.65,-0.02 0.84,-0.08 v 3.01 c -1.12,0.33 -1.96,0.49 -2.52,0.49 -1.77,0 -2.8,-0.8 -3.08,-2.4 -0.68,0.74 -1.59,1.32 -2.75,1.75 -1.16,0.43 -2.33,0.65 -3.52,0.65 -1.89,0 -3.4,-0.53 -4.52,-1.6 -1.12,-1.07 -1.68,-2.45 -1.68,-4.15 0,-1.8 0.48,-3.19 1.44,-4.17 0.96,-0.98 2.75,-1.63 5.39,-1.96 l 1.65,-0.23 c 1.24,-0.15 2.09,-0.32 2.57,-0.49 0.48,-0.18 0.82,-0.44 1.03,-0.78 0.21,-0.34 0.32,-0.77 0.32,-1.27 0,-1.75 -1.25,-2.64 -3.75,-2.66 -2.45,0.03 -3.78,1.07 -3.99,3.12 h -3.99 c 0.14,-2.16 0.91,-3.79 2.31,-4.89 1.4,-1.1 3.37,-1.65 5.91,-1.65 z m -4.9,14.61 c 0,0.84 0.32,1.5 0.95,1.98 0.63,0.48 1.46,0.72 2.49,0.72 1.38,0 2.51,-0.34 3.4,-1.03 0.89,-0.68 1.33,-1.55 1.33,-2.59 v -3.35 c -0.63,0.46 -1.53,0.75 -2.7,0.88 l -1.72,0.23 c -2.5,0.31 -3.75,1.36 -3.75,3.16 z"
         id="path27616" />
      <path
         class="st0"
         d="m 657.81,128.52 v 27.18 h -3.99 v -27.18 z"
         id="path27618" />
      <path
         class="st0"
         d="m 666.25,128.52 v 4.11 h -3.99 v -4.11 z m 0,7.5 v 19.68 h -3.99 v -19.68 z"
         id="path27620" />
      <path
         class="st0"
         d="m 678.5,135.49 c 2.24,0.03 4,0.54 5.29,1.54 1.28,1 1.94,2.35 1.96,4.05 v 10.35 c 0,0.51 0.07,0.86 0.21,1.07 0.14,0.2 0.43,0.3 0.88,0.3 0.37,0 0.65,-0.02 0.84,-0.08 v 3.01 c -1.12,0.33 -1.96,0.49 -2.52,0.49 -1.77,0 -2.8,-0.8 -3.08,-2.4 -0.68,0.74 -1.59,1.32 -2.75,1.75 -1.16,0.43 -2.33,0.65 -3.52,0.65 -1.89,0 -3.4,-0.53 -4.52,-1.6 -1.12,-1.07 -1.68,-2.45 -1.68,-4.15 0,-1.8 0.48,-3.19 1.44,-4.17 0.96,-0.98 2.75,-1.63 5.39,-1.96 l 1.65,-0.23 c 1.24,-0.15 2.09,-0.32 2.57,-0.49 0.48,-0.18 0.82,-0.44 1.03,-0.78 0.21,-0.34 0.32,-0.77 0.32,-1.27 0,-1.75 -1.25,-2.64 -3.75,-2.66 -2.45,0.03 -3.78,1.07 -3.99,3.12 h -3.99 c 0.14,-2.16 0.91,-3.79 2.31,-4.89 1.39,-1.1 3.37,-1.65 5.91,-1.65 z m -4.9,14.61 c 0,0.84 0.32,1.5 0.95,1.98 0.63,0.48 1.46,0.72 2.49,0.72 1.38,0 2.51,-0.34 3.4,-1.03 0.89,-0.68 1.33,-1.55 1.33,-2.59 v -3.35 c -0.63,0.46 -1.53,0.75 -2.7,0.88 l -1.72,0.23 c -2.5,0.31 -3.75,1.36 -3.75,3.16 z"
         id="path27622" />
      <path
         class="st0"
         d="m 699.58,135.49 c 2.1,0 3.69,0.6 4.76,1.79 1.07,1.19 1.61,2.78 1.61,4.76 v 13.66 h -3.99 v -12.29 c 0,-2.99 -1.18,-4.49 -3.54,-4.49 -1.31,0 -2.36,0.49 -3.17,1.48 -0.81,0.99 -1.21,2.18 -1.21,3.58 v 11.72 h -3.99 v -19.68 h 3.78 v 2.89 l 0.07,0.08 c 1.34,-2.33 3.23,-3.5 5.68,-3.5 z"
         id="path27624" />
      <path
         class="st0"
         d="m 731.1,127.88 c 2.96,0 5.41,0.85 7.34,2.55 1.93,1.7 3.02,3.95 3.27,6.74 h -4.38 c -0.86,-3.6 -2.94,-5.4 -6.23,-5.4 -2.36,0 -4.21,0.95 -5.57,2.85 -1.35,1.9 -2.03,4.4 -2.03,7.5 0,3.17 0.7,5.69 2.1,7.56 1.4,1.87 3.23,2.8 5.5,2.8 1.8,0 3.25,-0.63 4.36,-1.9 1.11,-1.27 1.78,-3.01 2.01,-5.21 h 4.27 c -0.23,3.27 -1.3,5.93 -3.19,7.96 -1.89,2.03 -4.38,3.05 -7.46,3.05 -3.48,0 -6.34,-1.33 -8.6,-3.98 -2.25,-2.65 -3.38,-6.07 -3.38,-10.26 0,-4.16 1.11,-7.57 3.33,-10.24 2.23,-2.69 5.11,-4.02 8.66,-4.02 z"
         id="path27626" />
      <path
         class="st0"
         d="m 753.47,135.49 c 2.71,0 4.91,0.95 6.6,2.84 1.69,1.89 2.54,4.4 2.54,7.52 0,3.17 -0.84,5.7 -2.52,7.57 -1.68,1.88 -3.89,2.82 -6.62,2.82 -2.78,0 -5,-0.95 -6.65,-2.84 -1.66,-1.89 -2.49,-4.41 -2.49,-7.56 0,-3.1 0.83,-5.6 2.5,-7.5 1.68,-1.9 3.89,-2.85 6.64,-2.85 z m -5.14,10.35 c 0,2 0.47,3.67 1.42,4.99 0.95,1.32 2.19,1.98 3.73,1.98 1.56,0 2.81,-0.66 3.75,-1.98 0.93,-1.32 1.4,-2.98 1.4,-4.99 0,-2.08 -0.47,-3.76 -1.4,-5.02 -0.93,-1.27 -2.19,-1.9 -3.78,-1.9 -1.54,0 -2.78,0.65 -3.71,1.94 -0.95,1.29 -1.41,2.95 -1.41,4.98 z"
         id="path27628" />
      <path
         class="st0"
         d="m 775.39,135.49 c 1.19,0 2.23,0.28 3.13,0.84 0.9,0.56 1.55,1.37 1.94,2.44 1.4,-2.18 3.3,-3.27 5.71,-3.27 4.02,0 6.02,2.16 6.02,6.47 v 13.74 h -3.99 v -11.88 c 0,-1.98 -0.26,-3.29 -0.79,-3.94 -0.53,-0.65 -1.36,-0.97 -2.5,-0.97 -2.57,0 -3.85,1.7 -3.85,5.1 v 11.69 h -3.99 v -12.79 c 0,-1.22 -0.22,-2.19 -0.67,-2.91 -0.44,-0.72 -1.27,-1.08 -2.49,-1.08 -1.14,0 -2.1,0.48 -2.85,1.43 -0.76,0.95 -1.14,2.14 -1.14,3.56 v 11.8 h -3.99 v -19.68 h 3.79 v 2.74 h 0.1 c 0.7,-1.14 1.49,-1.97 2.36,-2.49 0.88,-0.54 1.95,-0.8 3.21,-0.8 z"
         id="path27630" />
      <path
         class="st0"
         d="m 805.96,135.49 c 2.64,0 4.71,0.96 6.22,2.87 1.51,1.92 2.26,4.45 2.26,7.59 0,3.05 -0.71,5.52 -2.12,7.42 -1.41,1.9 -3.31,2.85 -5.69,2.85 -1.35,0 -2.57,-0.27 -3.64,-0.8 -1.07,-0.53 -1.88,-1.29 -2.42,-2.28 h -0.07 v 9.82 h -3.99 v -26.95 h 3.78 v 2.66 h 0.07 c 1.1,-2.12 2.97,-3.18 5.6,-3.18 z m -5.6,10.39 c 0,2.06 0.47,3.72 1.4,5.01 0.93,1.28 2.16,1.92 3.68,1.92 1.54,0 2.76,-0.63 3.66,-1.88 0.9,-1.26 1.35,-2.94 1.35,-5.04 0,-1.95 -0.46,-3.6 -1.37,-4.95 -0.91,-1.34 -2.14,-2.02 -3.68,-2.02 -1.59,0 -2.83,0.62 -3.71,1.85 -0.89,1.22 -1.33,2.93 -1.33,5.11 z"
         id="path27632" />
      <path
         class="st0"
         d="m 825.71,135.49 c 2.24,0.03 4,0.54 5.29,1.54 1.28,1 1.94,2.35 1.96,4.05 v 10.35 c 0,0.51 0.07,0.86 0.21,1.07 0.14,0.2 0.43,0.3 0.88,0.3 0.37,0 0.65,-0.02 0.84,-0.08 v 3.01 c -1.12,0.33 -1.96,0.49 -2.52,0.49 -1.77,0 -2.8,-0.8 -3.08,-2.4 -0.68,0.74 -1.59,1.32 -2.75,1.75 -1.16,0.43 -2.33,0.65 -3.52,0.65 -1.89,0 -3.4,-0.53 -4.52,-1.6 -1.12,-1.07 -1.68,-2.45 -1.68,-4.15 0,-1.8 0.48,-3.19 1.44,-4.17 0.96,-0.98 2.75,-1.63 5.39,-1.96 l 1.65,-0.23 c 1.24,-0.15 2.1,-0.32 2.57,-0.49 0.48,-0.18 0.82,-0.44 1.03,-0.78 0.21,-0.34 0.31,-0.77 0.31,-1.27 0,-1.75 -1.25,-2.64 -3.75,-2.66 -2.45,0.03 -3.78,1.07 -3.99,3.12 h -3.99 c 0.14,-2.16 0.91,-3.79 2.31,-4.89 1.41,-1.1 3.38,-1.65 5.92,-1.65 z m -4.9,14.61 c 0,0.84 0.32,1.5 0.95,1.98 0.63,0.48 1.46,0.72 2.49,0.72 1.38,0 2.51,-0.34 3.4,-1.03 0.89,-0.68 1.33,-1.55 1.33,-2.59 v -3.35 c -0.63,0.46 -1.53,0.75 -2.7,0.88 l -1.72,0.23 c -2.5,0.31 -3.75,1.36 -3.75,3.16 z"
         id="path27634" />
      <path
         class="st0"
         d="m 846.79,135.49 c 2.1,0 3.69,0.6 4.76,1.79 1.07,1.19 1.61,2.78 1.61,4.76 v 13.66 h -3.99 v -12.29 c 0,-2.99 -1.18,-4.49 -3.54,-4.49 -1.31,0 -2.36,0.49 -3.17,1.48 -0.81,0.99 -1.21,2.18 -1.21,3.58 v 11.72 h -3.99 v -19.68 h 3.78 v 2.89 l 0.07,0.08 c 1.34,-2.33 3.23,-3.5 5.68,-3.5 z"
         id="path27636" />
      <path
         class="st0"
         d="m 859.75,136.02 4.73,14.69 h 0.07 l 4.59,-14.69 h 4.17 l -6.97,20.55 c -0.84,2.59 -1.71,4.39 -2.61,5.4 -0.9,1.01 -2.2,1.52 -3.9,1.52 -0.84,0 -1.75,-0.08 -2.73,-0.23 v -3.65 c 1.07,0.18 1.7,0.27 1.89,0.27 1.26,0 2.09,-0.6 2.49,-1.79 l 0.77,-2.47 -6.86,-19.6 z"
         id="path27638" />
      <path
         class="st1"
         d="m 343.75,89.764 c -77.27,0 -149.73,7.29 -212.22,20.02 l -16.13,6.78 c 52.84,-8.32 111.34,-12.94 172.89,-12.94 17.29,0 34.33,0.37 51.07,1.08 l 6.86,-8.85 6.97,9.52 c 58.34,3.15 112.79,10.51 160.82,21.15 l 52.25,-14.57 C 501.5,97.874 425.3,89.764 343.75,89.764 Z"
         id="path27640" />
      <path
         class="st2"
         d="m 185.62,137.26 h -12.45 v -9.52 h 12.45 z m -12.45,4.77 h 12.45 v 38.02 h -12.45 z"
         id="path27642"
         style="fill:#ffffff;stroke:#000000;stroke-opacity:1" />
      <path
         class="st2"
         d="m 205.18,162.47 c 0.29,6.15 4.03,8.13 9.89,8.13 4.1,0 8.35,-1.47 8.35,-5.35 0,-4.69 -7.47,-5.49 -15.02,-7.62 -7.4,-2.12 -15.31,-5.42 -15.31,-15.09 0,-11.43 11.5,-15.9 21.32,-15.9 10.33,0 20.95,5.13 20.95,16.85 h -13.63 c 0.22,-4.69 -4.32,-6.3 -8.43,-6.3 -2.93,0 -6.59,1.03 -6.59,4.47 0,4.1 7.55,4.76 15.16,6.89 7.55,2.12 15.17,5.64 15.17,15.09 0,13.26 -11.28,17.51 -22.78,17.51 -11.94,0 -22.71,-5.28 -22.71,-18.68 z"
         id="path27644"
         style="fill:#ffffff;stroke:#000000;stroke-opacity:1" />
      <path
         class="st2"
         d="m 253.16,164.08 c 0.22,5.27 3.22,8.64 8.5,8.64 3,0 5.93,-1.32 7.11,-4.18 h 11.65 c -2.34,8.79 -10.4,12.6 -18.9,12.6 -12.38,0 -20.81,-7.47 -20.81,-20.22 0,-11.65 9.3,-20 20.51,-20 13.63,0 20.44,10.26 19.85,23.15 h -27.91 z m 15.46,-6.96 c -0.22,-4.32 -3.22,-7.77 -7.4,-7.77 -4.4,0 -7.25,3.08 -8.06,7.77 z"
         id="path27646"
         style="fill:#ffffff;stroke:#000000;stroke-opacity:1" />
      <path
         class="st2"
         d="m 311.69,155.95 c 0,-3.22 -2.93,-5.49 -6.08,-5.49 -6.96,0 -8.06,5.93 -8.06,11.21 0,4.91 2.12,9.96 7.4,9.96 4.4,0 6.52,-2.42 7.11,-6.52 h 12.09 c -1.17,10.26 -8.94,16.04 -19.12,16.04 -11.43,0 -19.93,-7.77 -19.93,-19.49 0,-12.09 7.69,-20.73 19.93,-20.73 9.52,0 17.8,5.05 18.75,15.02 z"
         id="path27648"
         style="fill:#ffffff;stroke:#000000;stroke-opacity:1" />
      <path
         class="st2"
         d="m 367.8,180.05 h -12.09 v -5.2 h -0.15 c -2.34,3.88 -7.18,6.3 -11.57,6.3 -10.92,0 -14.07,-6.3 -14.07,-16.26 v -22.86 h 12.45 v 22.05 c 0,5.05 2.12,6.81 6.15,6.81 2.64,0 6.81,-1.76 6.81,-8.5 v -20.37 h 12.46 v 38.03 z"
         id="path27650"
         style="fill:#ffffff;stroke:#000000;stroke-opacity:1" />
      <path
         class="st2"
         d="m 376.22,142.03 h 12.09 v 6.67 h 0.15 c 1.83,-4.91 6.08,-7.4 11.43,-7.4 0.95,0 1.98,0.07 2.93,0.29 v 11.36 c -1.68,-0.51 -3.08,-0.73 -4.76,-0.73 -6.15,0 -9.38,4.25 -9.38,9.01 v 18.83 h -12.45 v -38.03 z"
         id="path27652"
         style="fill:#ffffff;stroke:#000000;stroke-opacity:1" />
      <path
         class="st2"
         d="m 419.51,137.26 h -12.45 v -9.52 h 12.45 z m -12.45,4.77 h 12.45 v 38.02 h -12.45 z"
         id="path27654"
         style="fill:#ffffff;stroke:#000000;stroke-opacity:1" />
      <path
         class="st2"
         d="m 450.86,150.08 h -7.69 v 17.29 c 0,3 1.76,3.66 4.47,3.66 1.1,0 2.12,-0.15 3.22,-0.15 v 9.16 c -2.27,0.07 -4.54,0.37 -6.81,0.37 -10.62,0 -13.33,-3.15 -13.33,-13.41 v -16.92 h -6.3 v -8.06 h 6.3 v -11.5 h 12.45 v 11.5 h 7.69 z"
         id="path27656"
         style="fill:#ffffff;stroke:#000000;stroke-opacity:1" />
      <path
         class="st2"
         d="m 476.79,183.42 c -2.93,8.35 -7.55,9.38 -15.9,9.38 h -5.86 v -10.11 h 4.32 c 2.86,0 4.98,-1.61 4.98,-4.25 0,-2.05 -2.42,-7.91 -3.15,-9.96 l -9.82,-26.45 h 13.19 l 7.18,24.76 h 0.15 l 7.18,-24.76 h 12.75 z"
         id="path27658"
         style="fill:#ffffff;stroke:#000000;stroke-opacity:1" />
    </g>
    <path
       d="m 191.4,156.39 c -5.959,-2.1247 -9.9518,-6.7006 -11.507,-13.188 l -0.63054,-2.6297 h 6.7119 c 5.9902,0 6.7119,0.19819 6.7119,1.8431 0,5.2514 12.93,8.1768 17.212,3.8944 1.0519,-1.0519 1.9125,-2.558 1.9125,-3.3468 0,-2.3512 -3.4503,-5.088 -7.8386,-6.2174 -15.4,-3.9636 -21.157,-7.527 -22.339,-13.826 -1.9961,-10.64 7.2726,-18.363 21.572,-17.974 8.5038,0.23127 15.952,4.4565 18.178,10.312 1.8347,4.8256 1.4288,5.2337 -5.2046,5.2337 -5.3124,0 -6.2339,-0.26092 -6.7584,-1.9135 -0.76867,-2.4219 -3.413,-3.8495 -7.4015,-3.996 -4.3456,-0.15962 -7.2255,0.9216 -7.8709,2.955 -1.2845,4.047 0.74433,5.4571 11.868,8.2491 14.004,3.5149 19.191,8.8446 17.778,18.268 -0.83244,5.5511 -4.9619,10.245 -10.748,12.216 -5.4197,1.8467 -16.629,1.9086 -21.646,0.11964 z"
       fill="#a0a0a0"
       id="path27662" />
    <path
       d="m 191.4,156.39 c -5.959,-2.1247 -9.9518,-6.7006 -11.507,-13.188 l -0.63054,-2.6297 h 6.7119 c 5.9902,0 6.7119,0.19819 6.7119,1.8431 0,5.2514 12.93,8.1768 17.212,3.8944 1.0519,-1.0519 1.9125,-2.558 1.9125,-3.3468 0,-2.3512 -3.4503,-5.088 -7.8386,-6.2174 -15.4,-3.9636 -21.157,-7.527 -22.339,-13.826 -1.9961,-10.64 7.2726,-18.363 21.572,-17.974 8.5038,0.23127 15.952,4.4565 18.178,10.312 1.8347,4.8256 1.4288,5.2337 -5.2046,5.2337 -5.3124,0 -6.2339,-0.26092 -6.7584,-1.9135 -0.76867,-2.4219 -3.413,-3.8495 -7.4015,-3.996 -4.3456,-0.15962 -7.2255,0.9216 -7.8709,2.955 -1.2845,4.047 0.74433,5.4571 11.868,8.2491 14.004,3.5149 19.191,8.8446 17.778,18.268 -0.83244,5.5511 -4.9619,10.245 -10.748,12.216 -5.4197,1.8467 -16.629,1.9086 -21.646,0.11964 z"
       fill="#ffffff"
       id="path27664" />
    <path
       d="m 238.74,155.73 c -5.8864,-2.9137 -9.0712,-8.1142 -9.5472,-15.59 -0.29668,-4.6592 0.0507,-6.7852 1.6074,-9.8366 5.0786,-9.9549 17.32,-14.152 27.001,-9.2581 5.7674,2.9158 10.402,10.858 10.416,17.851 l 0.005,2.6297 h -13.866 c -13.095,0 -13.866,0.10325 -13.866,1.8592 0,1.0225 0.99646,3.0176 2.2143,4.4335 2.8878,3.3572 9.1755,3.6252 12.469,0.53144 1.6437,-1.5441 3.3851,-2.0429 7.1332,-2.0429 2.7272,0 4.9586,0.41534 4.9586,0.92297 0,1.7774 -6.2146,7.9802 -9.2777,9.26 -4.8466,2.025 -14.383,1.6486 -19.249,-0.75991 z m 18.008,-22.406 c 0,-2.4572 -5.3144,-7.0983 -8.1281,-7.0983 -2.8137,0 -8.1281,4.6411 -8.1281,7.0983 0,1.2548 1.3644,1.5079 8.1281,1.5079 6.7637,0 8.1281,-0.25313 8.1281,-1.5079 z"
       fill="#ffffff"
       stroke-width="0.95624"
       id="path27666" />
    <path
       d="m 238.74,155.73 c -5.8864,-2.9137 -9.0712,-8.1142 -9.5472,-15.59 -0.29668,-4.6592 0.0507,-6.7852 1.6074,-9.8366 5.0786,-9.9549 17.32,-14.152 27.001,-9.2581 5.7674,2.9158 10.402,10.858 10.416,17.851 l 0.005,2.6297 h -13.866 c -13.095,0 -13.866,0.10325 -13.866,1.8592 0,1.0225 0.99646,3.0176 2.2143,4.4335 2.8878,3.3572 9.1755,3.6252 12.469,0.53144 1.6437,-1.5441 3.3851,-2.0429 7.1332,-2.0429 2.7272,0 4.9586,0.41534 4.9586,0.92297 0,1.7774 -6.2146,7.9802 -9.2777,9.26 -4.8466,2.025 -14.383,1.6486 -19.249,-0.75991 z m 18.008,-22.406 c 0,-2.4572 -5.3144,-7.0983 -8.1281,-7.0983 -2.8137,0 -8.1281,4.6411 -8.1281,7.0983 0,1.2548 1.3644,1.5079 8.1281,1.5079 6.7637,0 8.1281,-0.25313 8.1281,-1.5079 z"
       fill="#ffffff"
       stroke-width="0.95624"
       id="path27668" />
    <path
       d="m 238.74,155.73 c -5.8864,-2.9137 -9.0712,-8.1142 -9.5472,-15.59 -0.29668,-4.6592 0.0507,-6.7852 1.6074,-9.8366 5.0786,-9.9549 17.32,-14.152 27.001,-9.2581 5.7674,2.9158 10.402,10.858 10.416,17.851 l 0.005,2.6297 h -13.866 c -13.095,0 -13.866,0.10325 -13.866,1.8592 0,1.0225 0.99646,3.0176 2.2143,4.4335 2.8878,3.3572 9.1755,3.6252 12.469,0.53144 1.6437,-1.5441 3.3851,-2.0429 7.1332,-2.0429 2.7272,0 4.9586,0.41534 4.9586,0.92297 0,1.7774 -6.2146,7.9802 -9.2777,9.26 -4.8466,2.025 -14.383,1.6486 -19.249,-0.75991 z m 18.008,-22.406 c 0,-2.4572 -5.3144,-7.0983 -8.1281,-7.0983 -2.8137,0 -8.1281,4.6411 -8.1281,7.0983 0,1.2548 1.3644,1.5079 8.1281,1.5079 6.7637,0 8.1281,-0.25313 8.1281,-1.5079 z"
       fill="#ffffff"
       stroke-width="0.95624"
       id="path27670" />
    <path
       d="m 161.13,138.66 v -18.169 h 11.475 v 36.337 H 161.13 Z"
       fill="#ffffff"
       stroke-width="0.95624"
       id="path27672" />
    <path
       d="m 182.4,139.87 c 1.9722,-0.20631 5.1996,-0.20631 7.1718,0 1.9722,0.2063 0.35859,0.37509 -3.5859,0.37509 -3.94449,0 -5.5582,-0.16879 -3.5859,-0.37509 z"
       fill="#ffffff"
       stroke-width="0.95624"
       id="path27674" />
    <path
       d="m 182.4,139.87 c 1.9722,-0.20631 5.1996,-0.20631 7.1718,0 1.9722,0.2063 0.35859,0.37509 -3.5859,0.37509 -3.94449,0 -5.5582,-0.16879 -3.5859,-0.37509 z"
       fill="#ffffff"
       stroke-width="0.95624"
       id="path27676" />
    <path
       d="m 182.4,139.87 c 1.9722,-0.20631 5.1996,-0.20631 7.1718,0 1.9722,0.2063 0.35859,0.37509 -3.5859,0.37509 -3.94449,0 -5.5582,-0.16879 -3.5859,-0.37509 z"
       fill="#ffffff"
       stroke-width="0.95624"
       id="path27678" />
    <path
       d="m 327.33,158.13 c -4.5515,-0.90557 -7.6768,-3.9253 -8.8994,-8.5988 -0.69139,-2.6428 -0.83428,-5.6679 -0.83845,-17.75 l -0.004,-12.013 h 12.168 l 0.0842,12.132 c 0.0638,9.1845 0.16052,12.364 0.39825,13.088 0.41594,1.2655 2.0381,2.8634 3.248,3.1992 1.356,0.37646 3.6743,0.33069 4.9305,-0.0974 1.5975,-0.54432 2.7172,-1.6014 3.6043,-3.4029 l 0.78774,-1.5996 0.0684,-11.66 0.0684,-11.66 h 12.414 v 37.772 h -11.953 v -2.6297 c 0,-1.4463 -0.0988,-2.6297 -0.21956,-2.6297 -0.12076,0 -0.45657,0.38348 -0.74624,0.85218 -1.1985,1.9392 -4.7587,4.2359 -7.7504,4.9996 -1.7251,0.44042 -5.1409,0.43942 -7.3603,-0.002 z"
       fill="#ffffff"
       stroke-width="0.23906"
       id="path27680" />
    <path
       d="m 327.33,158.13 c -4.5515,-0.90557 -7.6768,-3.9253 -8.8994,-8.5988 -0.69139,-2.6428 -0.83428,-5.6679 -0.83845,-17.75 l -0.004,-12.013 h 12.168 l 0.0842,12.132 c 0.0638,9.1845 0.16052,12.364 0.39825,13.088 0.41594,1.2655 2.0381,2.8634 3.248,3.1992 1.356,0.37646 3.6743,0.33069 4.9305,-0.0974 1.5975,-0.54432 2.7172,-1.6014 3.6043,-3.4029 l 0.78774,-1.5996 0.0684,-11.66 0.0684,-11.66 h 12.414 v 37.772 h -11.953 v -2.6297 c 0,-1.4463 -0.0988,-2.6297 -0.21956,-2.6297 -0.12076,0 -0.45657,0.38348 -0.74624,0.85218 -1.1985,1.9392 -4.7587,4.2359 -7.7504,4.9996 -1.7251,0.44042 -5.1409,0.43942 -7.3603,-0.002 z"
       fill="#ffffff"
       stroke-width="0.23906"
       id="path27682" />
    <path
       d="m 327.33,158.13 c -4.5515,-0.90557 -7.6768,-3.9253 -8.8994,-8.5988 -0.69139,-2.6428 -0.83428,-5.6679 -0.83845,-17.75 l -0.004,-12.013 h 12.168 l 0.0842,12.132 c 0.0638,9.1845 0.16052,12.364 0.39825,13.088 0.41594,1.2655 2.0381,2.8634 3.248,3.1992 1.356,0.37646 3.6743,0.33069 4.9305,-0.0974 1.5975,-0.54432 2.7172,-1.6014 3.6043,-3.4029 l 0.78774,-1.5996 0.0684,-11.66 0.0684,-11.66 h 12.414 v 37.772 h -11.953 v -2.6297 c 0,-1.4463 -0.0988,-2.6297 -0.21956,-2.6297 -0.12076,0 -0.45657,0.38348 -0.74624,0.85218 -1.1985,1.9392 -4.7587,4.2359 -7.7504,4.9996 -1.7251,0.44042 -5.1409,0.43942 -7.3603,-0.002 z"
       fill="#ffffff"
       stroke-width="0.23906"
       id="path27684" />
    <path
       d="m 327.33,158.13 c -4.5515,-0.90557 -7.6768,-3.9253 -8.8994,-8.5988 -0.69139,-2.6428 -0.83428,-5.6679 -0.83845,-17.75 l -0.004,-12.013 h 12.168 l 0.0842,12.132 c 0.0638,9.1845 0.16052,12.364 0.39825,13.088 0.41594,1.2655 2.0381,2.8634 3.248,3.1992 1.356,0.37646 3.6743,0.33069 4.9305,-0.0974 1.5975,-0.54432 2.7172,-1.6014 3.6043,-3.4029 l 0.78774,-1.5996 0.0684,-11.66 0.0684,-11.66 h 12.414 v 37.772 h -11.953 v -2.6297 c 0,-1.4463 -0.0988,-2.6297 -0.21956,-2.6297 -0.12076,0 -0.45657,0.38348 -0.74624,0.85218 -1.1985,1.9392 -4.7587,4.2359 -7.7504,4.9996 -1.7251,0.44042 -5.1409,0.43942 -7.3603,-0.002 z"
       fill="#ffffff"
       stroke-width="0.23906"
       id="path27686" />
  </switch>
</svg>
