<svg id="Layer_1" data-name="Layer 1" xmlns="http://www.w3.org/2000/svg" viewBox="0 0 374.5 124.13"><defs><style>.cls-1{fill:#0474b7;}.cls-2{fill:#187bbb;}.cls-3{fill:#221e1f;}</style></defs><path class="cls-1" d="M75.63,95.08l8,22.57h-3.9l-2-6H69.49l-1.95,6H63.79l8-22.57Zm-2,3.89-3.14,9.7h6.34L73.71,99Z"/><path class="cls-1" d="M102.54,94.54a8.88,8.88,0,0,1,6.09,2.12,8.19,8.19,0,0,1,2.72,5.6h-3.64c-.71-3-2.44-4.49-5.17-4.49a5.38,5.38,0,0,0-4.63,2.37,10.54,10.54,0,0,0-1.69,6.23A10.23,10.23,0,0,0,98,112.64a5.43,5.43,0,0,0,4.57,2.32,4.56,4.56,0,0,0,3.62-1.58,7.58,7.58,0,0,0,1.67-4.33h3.55a10.5,10.5,0,0,1-2.65,6.61,8.06,8.06,0,0,1-6.19,2.53,9,9,0,0,1-7.15-3.3,12.73,12.73,0,0,1-2.8-8.52,12.86,12.86,0,0,1,2.76-8.51A8.92,8.92,0,0,1,102.54,94.54Z"/><path class="cls-1" d="M120.8,100.86a7.16,7.16,0,0,1,4.39,1.28,4.14,4.14,0,0,1,1.63,3.37v8.6a1.62,1.62,0,0,0,.18.89c.11.17.36.25.72.25a3,3,0,0,0,.7-.06v2.49a8,8,0,0,1-2.09.41,2.27,2.27,0,0,1-2.56-2,5.84,5.84,0,0,1-2.29,1.46,8.23,8.23,0,0,1-2.92.53,5.23,5.23,0,0,1-3.75-1.32,4.57,4.57,0,0,1-1.4-3.45,4.71,4.71,0,0,1,1.2-3.46c.79-.81,2.28-1.36,4.48-1.63l1.36-.19a11,11,0,0,0,2.14-.41,1.63,1.63,0,0,0,.86-.65,2,2,0,0,0,.26-1.06c0-1.45-1-2.19-3.11-2.21s-3.14.88-3.32,2.59H114a5.29,5.29,0,0,1,1.92-4.06A7.73,7.73,0,0,1,120.8,100.86ZM116.73,113a2,2,0,0,0,.78,1.65,3.35,3.35,0,0,0,2.07.6,4.55,4.55,0,0,0,2.82-.85,2.62,2.62,0,0,0,1.11-2.15v-2.79a4.62,4.62,0,0,1-2.24.73l-1.43.19C117.77,110.63,116.73,111.51,116.73,113Z"/><path class="cls-1" d="M133.8,95.08v22.57h-3.31V95.08Z"/><path class="cls-1" d="M140.81,95.08v3.41H137.5V95.08Zm0,6.23v16.34H137.5V101.31Z"/><path class="cls-1" d="M151,100.86a7.16,7.16,0,0,1,4.39,1.28,4.14,4.14,0,0,1,1.63,3.37v8.6a1.62,1.62,0,0,0,.18.89c.11.17.36.25.73.25a2.9,2.9,0,0,0,.69-.06v2.49a8,8,0,0,1-2.09.41,2.27,2.27,0,0,1-2.56-2,5.79,5.79,0,0,1-2.28,1.46,8.29,8.29,0,0,1-2.93.53,5.23,5.23,0,0,1-3.75-1.32,4.57,4.57,0,0,1-1.4-3.45,4.71,4.71,0,0,1,1.2-3.46c.79-.81,2.29-1.36,4.48-1.63l1.36-.19a11,11,0,0,0,2.14-.41,1.59,1.59,0,0,0,.86-.65,2,2,0,0,0,.26-1.06c0-1.45-1-2.19-3.11-2.21s-3.14.88-3.32,2.59h-3.31a5.29,5.29,0,0,1,1.92-4.06A7.73,7.73,0,0,1,151,100.86ZM146.92,113a2,2,0,0,0,.79,1.65,3.3,3.3,0,0,0,2.06.6,4.51,4.51,0,0,0,2.82-.85,2.62,2.62,0,0,0,1.11-2.15v-2.79a4.62,4.62,0,0,1-2.24.73l-1.43.19C148,110.63,146.92,111.51,146.92,113Z"/><path class="cls-1" d="M168.5,100.86a5.06,5.06,0,0,1,4,1.49,5.69,5.69,0,0,1,1.34,4v11.35h-3.32V107.44q0-3.73-2.94-3.73a3.24,3.24,0,0,0-2.63,1.23,4.56,4.56,0,0,0-1,3v9.74h-3.32V101.31h3.14v2.4l.06.06A5.18,5.18,0,0,1,168.5,100.86Z"/><path class="cls-1" d="M194.68,94.54a8.88,8.88,0,0,1,6.09,2.12,8.14,8.14,0,0,1,2.72,5.6h-3.63c-.72-3-2.45-4.49-5.18-4.49a5.36,5.36,0,0,0-4.62,2.37,10.46,10.46,0,0,0-1.69,6.23,10.23,10.23,0,0,0,1.74,6.27,5.46,5.46,0,0,0,4.57,2.32,4.56,4.56,0,0,0,3.62-1.58,7.58,7.58,0,0,0,1.67-4.33h3.55a10.44,10.44,0,0,1-2.64,6.61,8.07,8.07,0,0,1-6.2,2.53,9,9,0,0,1-7.14-3.3,12.74,12.74,0,0,1-2.81-8.52,12.81,12.81,0,0,1,2.77-8.51A8.9,8.9,0,0,1,194.68,94.54Z"/><path class="cls-1" d="M213.27,100.86a7,7,0,0,1,5.48,2.36,9,9,0,0,1,2.11,6.24,9.08,9.08,0,0,1-2.1,6.3,7.66,7.66,0,0,1-11,0,10.49,10.49,0,0,1,0-12.5A7,7,0,0,1,213.27,100.86Zm-4.28,8.6a6.93,6.93,0,0,0,1.18,4.15,3.76,3.76,0,0,0,6.21,0,7.06,7.06,0,0,0,1.16-4.15,6.91,6.91,0,0,0-1.16-4.17,3.71,3.71,0,0,0-3.14-1.58,3.65,3.65,0,0,0-3.09,1.61A7,7,0,0,0,209,109.46Z"/><path class="cls-1" d="M231.47,100.86a4.9,4.9,0,0,1,2.61.7,3.93,3.93,0,0,1,1.61,2,5.4,5.4,0,0,1,4.74-2.72c3.34,0,5,1.8,5,5.38v11.41h-3.32v-9.86a5.62,5.62,0,0,0-.65-3.27,2.52,2.52,0,0,0-2.08-.81c-2.14,0-3.2,1.41-3.2,4.24v9.7h-3.32V107a4.59,4.59,0,0,0-.55-2.42,2.24,2.24,0,0,0-2.07-.9,2.89,2.89,0,0,0-2.37,1.19,4.57,4.57,0,0,0-.94,2.95v9.8h-3.32V101.31h3.14v2.27h.09a6,6,0,0,1,2-2.07A5.16,5.16,0,0,1,231.47,100.86Z"/><path class="cls-1" d="M256.87,100.86a6.21,6.21,0,0,1,5.16,2.39,9.94,9.94,0,0,1,1.88,6.31,10.09,10.09,0,0,1-1.76,6.16,5.6,5.6,0,0,1-4.73,2.37,6.78,6.78,0,0,1-3-.66,4.39,4.39,0,0,1-2-1.9h-.06v8.16H249V101.31h3.14v2.21h.06A4.82,4.82,0,0,1,256.87,100.86Zm-4.66,8.64a6.85,6.85,0,0,0,1.17,4.15,3.58,3.58,0,0,0,3.05,1.6,3.54,3.54,0,0,0,3-1.57,7,7,0,0,0,1.12-4.18,7.18,7.18,0,0,0-1.13-4.11,3.53,3.53,0,0,0-3.06-1.68,3.57,3.57,0,0,0-3.08,1.53A7.16,7.16,0,0,0,252.21,109.5Z"/><path class="cls-1" d="M273.27,100.86a7.16,7.16,0,0,1,4.39,1.28,4.14,4.14,0,0,1,1.63,3.37v8.6a1.62,1.62,0,0,0,.18.89c.11.17.36.25.72.25a3,3,0,0,0,.7-.06v2.49a8,8,0,0,1-2.09.41,2.27,2.27,0,0,1-2.56-2,5.84,5.84,0,0,1-2.29,1.46,8.23,8.23,0,0,1-2.92.53,5.23,5.23,0,0,1-3.75-1.32,4.57,4.57,0,0,1-1.4-3.45,4.71,4.71,0,0,1,1.2-3.46c.79-.81,2.28-1.36,4.47-1.63l1.37-.19a11,11,0,0,0,2.14-.41,1.63,1.63,0,0,0,.86-.65,2,2,0,0,0,.26-1.06c0-1.45-1-2.19-3.11-2.21s-3.14.88-3.32,2.59h-3.31a5.29,5.29,0,0,1,1.92-4.06A7.73,7.73,0,0,1,273.27,100.86ZM269.2,113a2,2,0,0,0,.78,1.65,3.35,3.35,0,0,0,2.07.6,4.55,4.55,0,0,0,2.82-.85,2.62,2.62,0,0,0,1.11-2.15v-2.79a4.62,4.62,0,0,1-2.24.73l-1.43.19C270.24,110.63,269.2,111.51,269.2,113Z"/><path class="cls-1" d="M290.78,100.86a5.07,5.07,0,0,1,4,1.49,5.69,5.69,0,0,1,1.33,4v11.35h-3.31V107.44q0-3.73-2.94-3.73a3.24,3.24,0,0,0-2.63,1.23,4.56,4.56,0,0,0-1,3v9.74h-3.32V101.31H286v2.4l.06.06A5.17,5.17,0,0,1,290.78,100.86Z"/><path class="cls-1" d="M301.54,101.31l3.93,12.2h.06l3.81-12.2h3.46L307,118.38a13.19,13.19,0,0,1-2.17,4.49,4.09,4.09,0,0,1-3.24,1.26,14.47,14.47,0,0,1-2.27-.19v-3c.89.15,1.42.22,1.57.22a2,2,0,0,0,2.07-1.49l.64-2-5.7-16.28Z"/><path class="cls-2" d="M189.67,0C125.49,0,65.3,6.05,13.4,16.63L0,22.27A930.55,930.55,0,0,1,143.61,11.52q21.54,0,42.42.89l5.7-7.36L197.52,13C246,15.58,291.2,21.69,331.1,30.53l43.4-12.1C320.7,6.74,257.41,0,189.67,0Z"/><path class="cls-3" d="M58.33,39.46H48V31.55H58.33ZM48,43.42H58.33V75H48Z"/><path class="cls-3" d="M74.57,60.39c.25,5.12,3.35,6.76,8.22,6.76,3.41,0,6.94-1.22,6.94-4.44,0-3.9-6.21-4.57-12.48-6.33S64.53,51.87,64.53,43.84c0-9.49,9.56-13.2,17.71-13.2,8.58,0,17.4,4.26,17.4,14H88.33c.18-3.89-3.59-5.23-7-5.23-2.44,0-5.48.85-5.48,3.71,0,3.41,6.27,4,12.6,5.72S101,53.52,101,61.37c0,11-9.37,14.54-18.92,14.54-9.92,0-18.87-4.38-18.87-15.52Z"/><path class="cls-3" d="M114.43,61.73c.18,4.38,2.67,7.18,7.06,7.18,2.49,0,4.92-1.09,5.9-3.47h9.67c-1.94,7.31-8.64,10.47-15.7,10.47-10.28,0-17.28-6.21-17.28-16.79,0-9.68,7.73-16.62,17-16.62,11.32,0,17,8.52,16.49,19.23ZM127.27,56c-.19-3.59-2.68-6.45-6.15-6.45-3.65,0-6,2.56-6.69,6.45Z"/><path class="cls-3" d="M163,55a4.83,4.83,0,0,0-5-4.57c-5.78,0-6.69,4.93-6.69,9.31,0,4.08,1.76,8.28,6.14,8.28,3.66,0,5.42-2,5.91-5.42h10c-1,8.52-7.43,13.33-15.88,13.33C148,75.91,141,69.46,141,59.72c0-10,6.39-17.22,16.56-17.22,7.91,0,14.78,4.2,15.57,12.48Z"/><path class="cls-3" d="M209.65,75h-10V70.68h-.12a11.66,11.66,0,0,1-9.62,5.23c-9.06,0-11.68-5.23-11.68-13.51v-19h10.34V61.73c0,4.2,1.77,5.66,5.12,5.66,2.19,0,5.65-1.46,5.65-7.06V43.42h10.35Z"/><path class="cls-3" d="M216.64,43.42h10V49h.13c1.52-4.07,5.05-6.14,9.49-6.14a11.13,11.13,0,0,1,2.43.24v9.43a12.9,12.9,0,0,0-3.95-.61c-5.11,0-7.79,3.53-7.79,7.49V75H216.64Z"/><path class="cls-3" d="M252.6,39.46H242.26V31.55H252.6Zm-10.34,4H252.6V75H242.26Z"/><path class="cls-3" d="M278.65,50.11h-6.39V64.47c0,2.5,1.46,3,3.71,3,.91,0,1.76-.12,2.68-.12V75c-1.89.06-3.78.3-5.66.3-8.83,0-11.08-2.61-11.08-11.13V50.11h-5.23V43.42h5.23V33.86h10.35v9.56h6.39Z"/><path class="cls-3" d="M300.18,77.8c-2.43,6.93-6.26,7.79-13.2,7.79h-4.87v-8.4h3.59c2.37,0,4.14-1.34,4.14-3.53,0-1.7-2-6.57-2.62-8.28l-8.15-22H290L296,64h.12l6-20.56h10.59Z"/></svg>