<svg width="374" height="72" viewBox="0 0 374 72" fill="none" xmlns="http://www.w3.org/2000/svg">
<g clip-path="url(#clip0_1_22)">
<path d="M152.74 24.62C151.78 17.82 145.27 12.65 137.8 12.65C124.3 12.65 119.22 24.14 119.22 36.12C119.22 48.1 124.3 59.01 137.8 59.01C146.99 59.01 152.17 52.69 153.32 43.69H167.88C166.35 60.74 154.57 71.66 137.81 71.66C116.64 71.66 104.19 55.86 104.19 36.13C104.19 16.4 116.63 0 137.79 0C152.83 0 165.47 8.81 167.29 24.62H152.73H152.74Z" fill="white"/>
<path d="M193.35 30.07C199.19 30.55 207.62 29.4 207.62 21.74C207.62 16.09 203.12 12.83 198.14 12.83C191.34 12.83 187.7 17.91 187.8 24.8H174.87C175.35 11.1 184.26 1.62 198.05 1.62C208.78 1.62 220.56 8.22999 220.56 20.2C220.56 26.52 217.4 32.17 211.17 33.9V34.09C218.55 35.72 223.05 41.85 223.05 49.32C223.05 63.4 211.27 71.35 198.15 71.35C183.11 71.35 172.96 62.35 173.25 46.93H186.18C186.47 54.21 190.11 60.15 197.96 60.15C204.09 60.15 208.88 55.94 208.88 49.61C208.88 39.46 199.97 39.65 193.36 39.65V30.07H193.35Z" fill="white"/>
<path d="M261.92 20.21C261.06 15.71 257.61 11.88 252.92 11.88C243.05 11.88 240.47 24.81 240.09 32.28L240.28 32.47C244.02 27.2 248.9 25 255.41 25C261.16 25 267 27.68 270.83 31.9C274.37 36.02 276 41.57 276 46.84C276 60.54 266.52 71.36 252.53 71.36C232.22 71.36 226.77 53.64 226.77 36.69C226.77 19.74 234.05 1.63 253.11 1.63C264.7 1.63 273.32 8.43001 274.85 20.21H261.92ZM241.33 47.7C241.33 53.93 245.35 60.15 252.15 60.15C258.95 60.15 262.4 53.92 262.4 47.89C262.4 41.86 259.14 35.25 252.15 35.25C245.16 35.25 241.33 41.09 241.33 47.7Z" fill="white"/>
<path d="M304.54 1.63C317.95 1.63 329.25 10.06 329.25 36.21C329.25 62.36 317.95 71.36 304.54 71.36C291.13 71.36 280.02 62.93 280.02 36.21C280.02 9.49 291.33 1.63 304.54 1.63ZM304.54 60.15C315.65 60.15 315.65 43.77 315.65 36.2C315.65 29.21 315.65 12.83 304.54 12.83C293.43 12.83 293.62 29.21 293.62 36.2C293.62 43.77 293.62 60.15 304.54 60.15Z" fill="white"/>
<path d="M344.13 57.71H339.01V54.55H353.01V57.71H347.89V71.64H344.13V57.71Z" fill="white"/>
<path d="M354.97 54.55H360.26L364.26 66.3H364.31L368.09 54.55H373.38V71.64H369.86V59.53H369.81L365.62 71.64H362.72L358.53 59.65H358.48V71.64H354.96V54.55H354.97Z" fill="white"/>
<g clip-path="url(#clip1_1_22)">
<path d="M0 50.85V2H68.96V50.95C68.68 50.85 68.39 50.77 68.11 50.67C62.23 48.63 56.17 47.34 50.01 46.5C49.29 46.4 48.66 46.26 48.15 45.61C46.8 43.89 45.36 42.25 43.95 40.58C40.85 36.9 37.75 33.21 34.65 29.52C34.34 29.15 34.23 29.15 33.92 29.52C32.36 31.35 30.8 33.19 29.25 35.03C26.18 38.68 23.13 42.34 20.04 45.97C19.82 46.23 19.42 46.43 19.08 46.49C17.14 46.83 15.17 47.01 13.25 47.44C9.97 48.15 6.72 48.99 3.47 49.81C2.3 50.1 1.16 50.51 0.01 50.87" fill="#0E74B8"/>
<path d="M14.56 70.97C15.55 69.76 16.52 68.54 17.52 67.35C20.34 63.97 23.18 60.6 26.02 57.24C28.68 54.08 31.35 50.93 34.02 47.78C34.11 47.67 34.13 47.51 34.18 47.37C34.25 47.42 34.3 47.47 34.37 47.52C36.34 49.86 38.31 52.2 40.28 54.54C44.54 59.61 48.81 64.67 53.07 69.74C53.4 70.14 53.71 70.57 54.02 70.98H14.56V70.97Z" fill="black"/>
</g>
</g>
<defs>
<clipPath id="clip0_1_22">
<rect width="373.38" height="71.64" fill="white"/>
</clipPath>
<clipPath id="clip1_1_22">
<rect width="68.96" height="68.97" fill="white" transform="translate(0 2)"/>
</clipPath>
</defs>
</svg>
