<?xml version="1.0" encoding="UTF-8"?><svg id="Layer_1" xmlns="http://www.w3.org/2000/svg" viewBox="0 0 373.38 71.64"><defs><style>.cls-1{fill:#fff;stroke-width:0px;}</style></defs><path class="cls-1" d="M152.74,24.62c-.96-6.8-7.47-11.97-14.94-11.97-13.5,0-18.58,11.49-18.58,23.47s5.08,22.89,18.58,22.89c9.19,0,14.37-6.32,15.52-15.32h14.56c-1.53,17.05-13.31,27.97-30.07,27.97-21.17,0-33.62-15.8-33.62-35.53S116.63,0,137.79,0c15.04,0,27.68,8.81,29.5,24.62h-14.56Z"/><path class="cls-1" d="M193.35,30.07c5.84.48,14.27-.67,14.27-8.33,0-5.65-4.5-8.91-9.48-8.91-6.8,0-10.44,5.08-10.34,11.97h-12.93c.48-13.7,9.39-23.18,23.18-23.18,10.73,0,22.51,6.61,22.51,18.58,0,6.32-3.16,11.97-9.39,13.7v.19c7.38,1.63,11.88,7.76,11.88,15.23,0,14.08-11.78,22.03-24.9,22.03-15.04,0-25.19-9-24.9-24.42h12.93c.29,7.28,3.93,13.22,11.78,13.22,6.13,0,10.92-4.21,10.92-10.54,0-10.15-8.91-9.96-15.52-9.96v-9.58Z"/><path class="cls-1" d="M261.92,20.21c-.86-4.5-4.31-8.33-9-8.33-9.87,0-12.45,12.93-12.83,20.4l.19.19c3.74-5.27,8.62-7.47,15.13-7.47,5.75,0,11.59,2.68,15.42,6.9,3.54,4.12,5.17,9.67,5.17,14.94,0,13.7-9.48,24.52-23.47,24.52-20.31,0-25.76-17.72-25.76-34.67S234.05,1.63,253.11,1.63c11.59,0,20.21,6.8,21.74,18.58h-12.93ZM241.33,47.7c0,6.23,4.02,12.45,10.82,12.45s10.25-6.23,10.25-12.26-3.26-12.64-10.25-12.64-10.82,5.84-10.82,12.45Z"/><path class="cls-1" d="M304.54,1.63c13.41,0,24.71,8.43,24.71,34.58s-11.3,35.15-24.71,35.15-24.52-8.43-24.52-35.15S291.33,1.63,304.54,1.63ZM304.54,60.15c11.11,0,11.11-16.38,11.11-23.95,0-6.99,0-23.37-11.11-23.37s-10.92,16.38-10.92,23.37c0,7.57,0,23.95,10.92,23.95Z"/><path class="cls-1" d="M344.13,57.71h-5.12v-3.16h14v3.16h-5.12v13.93h-3.76v-13.93Z"/><path class="cls-1" d="M354.97,54.55h5.29l4,11.75h.05l3.78-11.75h5.29v17.09h-3.52v-12.11h-.05l-4.19,12.11h-2.9l-4.19-11.99h-.05v11.99h-3.52v-17.09Z"/><path class="cls-1" d="M0,49.9V1.05h68.96v48.95c-.28-.1-.57-.18-.85-.28-5.88-2.04-11.94-3.33-18.1-4.17-.72-.1-1.35-.24-1.86-.89-1.35-1.72-2.79-3.36-4.2-5.03-3.1-3.68-6.2-7.37-9.3-11.06-.31-.37-.42-.37-.73,0-1.56,1.83-3.12,3.67-4.67,5.51-3.07,3.65-6.12,7.31-9.21,10.94-.22.26-.62.46-.96.52-1.94.34-3.91.52-5.83.95-3.28.71-6.53,1.55-9.78,2.37-1.17.29-2.31.7-3.46,1.06"/><path class="cls-1" d="M14.56,70.02c.99-1.21,1.96-2.43,2.96-3.62,2.82-3.38,5.66-6.75,8.5-10.11,2.66-3.16,5.33-6.31,8-9.46.09-.11.11-.27.16-.41.07.05.12.1.19.15,1.97,2.34,3.94,4.68,5.91,7.02,4.26,5.07,8.53,10.13,12.79,15.2.33.4.64.83.95,1.24H14.56Z"/></svg>