<?xml version="1.0" encoding="UTF-8"?><svg id="Layer_1" xmlns="http://www.w3.org/2000/svg" viewBox="0 0 68.96 68.97"><defs><style>.cls-1{fill:#fff;stroke-width:0px;}</style></defs><path class="cls-1" d="M0,48.85V0h68.96v48.95c-.28-.1-.57-.18-.85-.28-5.88-2.04-11.94-3.33-18.1-4.17-.72-.1-1.35-.24-1.86-.89-1.35-1.72-2.79-3.36-4.2-5.03-3.1-3.68-6.2-7.37-9.3-11.06-.31-.37-.42-.37-.73,0-1.56,1.83-3.12,3.67-4.67,5.51-3.07,3.65-6.12,7.31-9.21,10.94-.22.26-.62.46-.96.52-1.94.34-3.91.52-5.83.95-3.28.71-6.53,1.55-9.78,2.37-1.17.29-2.31.7-3.46,1.06"/><path class="cls-1" d="M14.56,68.97c.99-1.21,1.96-2.43,2.96-3.62,2.82-3.38,5.66-6.75,8.5-10.11,2.66-3.16,5.33-6.31,8-9.46.09-.11.11-.27.16-.41.07.05.12.1.19.15,1.97,2.34,3.94,4.68,5.91,7.02,4.26,5.07,8.53,10.13,12.79,15.2.33.4.64.83.95,1.24H14.56Z"/></svg>